{
  "accessors": [
    {
      "bufferView": 2,
      "componentType": 5126,
      "count": 1977,
      "max": [
        57.285511016845703,
        111.87252807617188,
        -91.63690185546875
      ],
      "min": [
        -125.64466857910156,
        -3.814697265625e-06,
        -192.18939208984375
      ],
      "type": "VEC3"
    },
    {
      "bufferView": 2,
      "byteOffset": 23724,
      "componentType": 5126,
      "count": 1977,
      "max": [
        1,
        0.99981766939163208,
        0.99963587522506714
      ],
      "min": [
        -1,
        -1,
        -1
      ],
      "type": "VEC3"
    },
    {
      "bufferView": 3,
      "componentType": 5126,
      "count": 1977,
      "max": [
        1,
        1,
        1,
        1
      ],
      "min": [
        -0.70662593841552734,
        -1,
        -1,
        1
      ],
      "type": "VEC4"
    },
    {
      "bufferView": 1,
      "componentType": 5126,
      "count": 1977,
      "max": [
        0.9921678900718689,
        0.91454225778579712
      ],
      "min": [
        0.0019920319318771362,
        0.0018254335736855865
      ],
      "type": "VEC2"
    },
    {
      "bufferView": 0,
      "componentType": 5125,
      "count": 3264,
      "max": [
        1976
      ],
      "min": [
        0
      ],
      "type": "SCALAR"
    },
    {
      "bufferView": 2,
      "byteOffset": 47448,
      "componentType": 5126,
      "count": 295,
      "max": [
        53.841022491455078,
        111.87252807617188,
        -101.75057983398438
      ],
      "min": [
        -121.968994140625,
        50.299407958984375,
        -192.18939208984375
      ],
      "type": "VEC3"
    },
    {
      "bufferView": 2,
      "byteOffset": 50988,
      "componentType": 5126,
      "count": 295,
      "max": [
        0.08268805593252182,
        0.99981766939163208,
        0.99965518712997437
      ],
      "min": [
        -0.082688026130199432,
        -0.99965780973434448,
        -1
      ],
      "type": "VEC3"
    },
    {
      "bufferView": 3,
      "byteOffset": 31632,
      "componentType": 5126,
      "count": 295,
      "max": [
        0.013981714844703674,
        0.99965512752532959,
        0.99965780973434448,
        1
      ],
      "min": [
        -0.013981634750962257,
        -1,
        -0.99981766939163208,
        1
      ],
      "type": "VEC4"
    },
    {
      "bufferView": 1,
      "byteOffset": 15816,
      "componentType": 5126,
      "count": 295,
      "max": [
        0.99800795316696167,
        0.89714258909225464
      ],
      "min": [
        0.006625013891607523,
        0.0076695429161190987
      ],
      "type": "VEC2"
    },
    {
      "bufferView": 0,
      "byteOffset": 13056,
      "componentType": 5125,
      "count": 456,
      "max": [
        294
      ],
      "min": [
        0
      ],
      "type": "SCALAR"
    }
  ],
  "asset": {
    "extras": {
      "author": "Sam (https://sketchfab.com/rawpuwnzl)",
      "license": "CC-BY-4.0 (http://creativecommons.org/licenses/by/4.0/)",
      "source": "https://sketchfab.com/models/bdfdc8f568964bbb9aece833323c7ecf",
      "title": "Park Bench"
    },
    "generator": "Sketchfab-3.22.5",
    "version": "2.0"
  },
  "bufferViews": [
    {
      "buffer": 0,
      "byteLength": 14880,
      "byteOffset": 0,
      "name": "floatBufferViews",
      "target": 34963
    },
    {
      "buffer": 0,
      "byteLength": 18176,
      "byteOffset": 14880,
      "byteStride": 8,
      "name": "floatBufferViews",
      "target": 34962
    },
    {
      "buffer": 0,
      "byteLength": 54528,
      "byteOffset": 33056,
      "byteStride": 12,
      "name": "floatBufferViews",
      "target": 34962
    },
    {
      "buffer": 0,
      "byteLength": 36352,
      "byteOffset": 87584,
      "byteStride": 16,
      "name": "floatBufferViews",
      "target": 34962
    }
  ],
  "buffers": [
    {
      "byteLength": 123936,
      "uri": "scene.bin"
    }
  ],
  "images": [
    {
      "uri": "textures/Prop_Bench_01_Mat2_normal.png"
    },
    {
      "uri": "textures/Prop_Bench_01_Mat2_baseColor.png"
    },
    {
      "uri": "textures/Prop_Bench_01_Mat2_metallicRoughness.png"
    },
    {
      "uri": "textures/Prop_Bench_01_Mat_normal.png"
    },
    {
      "uri": "textures/Prop_Bench_01_Mat_baseColor.png"
    },
    {
      "uri": "textures/Prop_Bench_01_Mat_metallicRoughness.png"
    }
  ],
  "materials": [
    {
      "doubleSided": true,
      "emissiveFactor": [
        0,
        0,
        0
      ],
      "name": "Prop_Bench_01_Mat",
      "normalTexture": {
        "index": 3,
        "scale": 1,
        "texCoord": 0
      },
      "pbrMetallicRoughness": {
        "baseColorFactor": [
          1,
          1,
          1,
          1
        ],
        "baseColorTexture": {
          "index": 4,
          "texCoord": 0
        },
        "metallicFactor": 1,
        "metallicRoughnessTexture": {
          "index": 5,
          "texCoord": 0
        },
        "roughnessFactor": 1
      }
    },
    {
      "doubleSided": true,
      "emissiveFactor": [
        0,
        0,
        0
      ],
      "name": "Prop_Bench_01_Mat2",
      "normalTexture": {
        "index": 0,
        "scale": 1,
        "texCoord": 0
      },
      "pbrMetallicRoughness": {
        "baseColorFactor": [
          1,
          1,
          1,
          1
        ],
        "baseColorTexture": {
          "index": 1,
          "texCoord": 0
        },
        "metallicFactor": 1,
        "metallicRoughnessTexture": {
          "index": 2,
          "texCoord": 0
        },
        "roughnessFactor": 1
      }
    }
  ],
  "meshes": [
    {
      "name": "Prop_Bench_01_Prop_Bench_01_Mat_0",
      "primitives": [
        {
          "attributes": {
            "NORMAL": 1,
            "POSITION": 0,
            "TANGENT": 2,
            "TEXCOORD_0": 3
          },
          "indices": 4,
          "material": 0,
          "mode": 4
        }
      ]
    },
    {
      "name": "Prop_Bench_01_Prop_Bench_01_Mat2_0",
      "primitives": [
        {
          "attributes": {
            "NORMAL": 6,
            "POSITION": 5,
            "TANGENT": 7,
            "TEXCOORD_0": 8
          },
          "indices": 9,
          "material": 1,
          "mode": 4
        }
      ]
    }
  ],
  "nodes": [
    {
      "children": [
        1
      ],
      "name": "RootNode (gltf orientation matrix)",
      "rotation": [
        -0.70710678118654746,
        -0,
        -0,
        0.70710678118654757
      ]
    },
    {
      "children": [
        2
      ],
      "name": "RootNode (model correction matrix)"
    },
    {
      "children": [
        3
      ],
      "matrix": [
        1,
        0,
        0,
        0,
        0,
        0,
        1,
        0,
        0,
        -1,
        0,
        0,
        0,
        0,
        0,
        1
      ],
      "name": "ba338a1fdff4421b8b31e6bdb2d29fe3.fbx"
    },
    {
      "children": [
        4
      ],
      "name": "RootNode"
    },
    {
      "children": [
        5,
        6
      ],
      "matrix": [
        0.0099999997764825821,
        0,
        0,
        0,
        0,
        0.0099999997764825821,
        0,
        0,
        0,
        0,
        0.0099999997764825821,
        0,
        0,
        0,
        0,
        1
      ],
      "name": "Prop_Bench_01"
    },
    {
      "mesh": 0,
      "name": "Prop_Bench_01_Prop_Bench_01_Mat_0"
    },
    {
      "mesh": 1,
      "name": "Prop_Bench_01_Prop_Bench_01_Mat2_0"
    }
  ],
  "samplers": [
    {
      "magFilter": 9729,
      "minFilter": 9987,
      "wrapS": 10497,
      "wrapT": 10497
    }
  ],
  "scene": 0,
  "scenes": [
    {
      "name": "OSG_Scene",
      "nodes": [
        0
      ]
    }
  ],
  "textures": [
    {
      "sampler": 0,
      "source": 0
    },
    {
      "sampler": 0,
      "source": 1
    },
    {
      "sampler": 0,
      "source": 2
    },
    {
      "sampler": 0,
      "source": 3
    },
    {
      "sampler": 0,
      "source": 4
    },
    {
      "sampler": 0,
      "source": 5
    }
  ]
}

